<?xml version="1.0" encoding="UTF-8"?>
<svg width="82px" height="56px" viewBox="0 0 82 56" version="1.1" xmlns="http://www.w3.org/2000/svg" xmlns:xlink="http://www.w3.org/1999/xlink">
    <!-- Generator: Sketch 60.1 (88133) - https://sketch.com -->
    <title>ic_cloud_upload</title>
    <desc>Created with Sketch.</desc>
    <g id="Symbols" stroke="none" stroke-width="1" fill="none" fill-rule="evenodd">
        <g id="dropzone" transform="translate(-176.000000, -172.000000)" stroke="#7AFFE0" stroke-width="2">
            <g id="ic_cloud_upload" transform="translate(177.000000, 160.000000)">
                <g id="Icon-24px">
                    <path d="M64.5,33.4666667 C62.2333333,21.9666667 52.1333333,13.3333333 40,13.3333333 C30.3666667,13.3333333 22,18.8 17.8333333,26.8 C7.8,27.8666667 0,36.3666667 0,46.6666667 C0,57.7 8.96666667,66.6666667 20,66.6666667 L63.3333333,66.6666667 C72.5333333,66.6666667 80,59.2 80,50 C80,41.2 73.1666667,34.0666667 64.5,33.4666667 L64.5,33.4666667 Z M46.6666667,43.3333333 L46.6666667,56.6666667 L33.3333333,56.6666667 L33.3333333,43.3333333 L23.3333333,43.3333333 L40,26.6666667 L56.6666667,43.3333333 L46.6666667,43.3333333 L46.6666667,43.3333333 Z" id="Shape"></path>
                </g>
            </g>
        </g>
    </g>
</svg>